<svg width="25" height="38" viewBox="0 0 25 38" fill="none" xmlns="http://www.w3.org/2000/svg">
<path d="M24.5163 4.10239C24.188 3.60575 23.7084 3.59149 23.1618 3.57523C23.0999 3.57339 23.0371 3.57153 22.9736 3.56893C22.9253 3.56673 22.8719 3.56758 22.8161 3.56846C22.5944 3.57198 22.3352 3.57609 22.2045 3.39212C22.0531 3.17883 22.0675 2.76663 22.0793 2.42635C22.0831 2.31882 22.0866 2.21841 22.0845 2.1338C22.0632 1.34332 22.0188 0.503628 21.7099 0.22292C21.477 0.0123098 20.7801 0.041487 20.1374 0.0683954C19.9291 0.0771184 19.7264 0.085603 19.5471 0.085603H5.86748C5.59205 0.085603 5.30334 0.0634489 5.01966 0.0416813C4.4669 -0.000733808 3.93327 -0.0416812 3.55433 0.085603C3.00437 0.271231 2.96713 1.24667 2.93207 2.16519L2.93018 2.21461C2.90074 2.97288 2.7105 3.55799 2.08001 3.49906C1.3467 3.43161 0.617018 3.41035 0.285467 4.06594C-0.106103 4.84161 -0.0253464 5.65358 0.119302 7.10792C0.139964 7.31567 0.16193 7.53652 0.184009 7.77225H24.7279C24.7419 7.59995 24.7568 7.42986 24.7715 7.26253C24.8864 5.95406 24.9866 4.81402 24.5163 4.10239Z" fill="#8047F8"/>
<path fill-rule="evenodd" clip-rule="evenodd" d="M2.09541 9.21467C2.47874 14.3395 2.85788 19.4701 3.23703 24.6009L3.23726 24.604C3.44312 27.3898 3.64899 30.1757 3.85553 32.9606H4.63866C4.69203 33.3965 4.75309 33.9347 4.81746 34.5021C4.94815 35.6539 5.09252 36.9264 5.21389 37.7083H5.30051C6.0982 37.42 11.6127 35.0916 11.6152 25.8218C11.6142 25.7954 11.6151 25.7689 11.6178 25.7427H10.2554C10.1895 25.7421 10.1256 25.7203 10.0735 25.6808C10.0214 25.6413 9.98411 25.5861 9.96727 25.5238C9.8345 25.1999 9.72746 24.8664 9.64708 24.5264C8.8456 24.9736 8.20912 25.6564 7.82838 26.4775C7.46696 25.6365 7.41965 24.6983 7.69473 23.8267C7.96981 22.9551 8.54978 22.2057 9.33329 21.7093C9.34339 19.0043 10.3687 16.3968 12.215 14.3804L12.2438 14.3553C12.2975 14.3095 12.3662 14.284 12.4375 14.2834C12.4787 14.2838 12.5194 14.2925 12.557 14.309C12.595 14.3257 12.6291 14.35 12.6569 14.3804C14.5248 16.3996 15.5447 19.0321 15.513 21.7531C16.3112 22.2356 16.9029 22.9845 17.1785 23.8608C17.4541 24.7371 17.3947 25.6813 17.0115 26.5181C16.6328 25.6957 15.9958 25.0123 15.1928 24.5671C15.1438 24.8966 15.0534 25.219 14.9239 25.527C14.879 25.6583 14.7894 25.7427 14.6997 25.7427H13.2468C13.2491 25.7584 13.2507 25.7742 13.2516 25.7901L13.2522 25.7937V25.8014C13.2527 25.815 13.2527 25.8287 13.2523 25.8424C13.2721 35.3783 19.1353 37.5428 19.6295 37.7083H19.7985C19.8417 36.9572 19.9822 35.9208 20.1191 34.9104C20.2135 34.2142 20.3062 33.5302 20.3642 32.9606H21.1564C21.41 29.4527 21.6708 25.9546 21.9316 22.4564L21.9317 22.4545L21.9318 22.4535C22.2654 17.9789 22.599 13.5042 22.9175 9.0087H2.14614C2.08635 9.02024 2.09043 9.11685 2.09541 9.21467ZM12.4375 14.2834L12.436 14.2834H12.4392L12.4375 14.2834Z" fill="#8047F8"/>
</svg>
